<svg width="50" height="36" viewBox="0 0 50 36" fill="none" xmlns="http://www.w3.org/2000/svg">
<path d="M25 0C11.245 0 0 11.2 0 24.9V36H50V24.9C50 11.2 38.8052 0 25 0ZM0.953815 35.05V24.9C0.953815 11.7 11.747 0.95 25 0.95C38.253 0.95 49.0462 11.7 49.0462 24.9V35H0.953815V35.05Z" fill="#2D3185"/>
<path d="M41.4659 26.1001H28.8153L41.1647 22.8001C41.4157 22.7501 41.5663 22.4501 41.5161 22.2001C41.4659 21.9501 41.1647 21.8001 40.9137 21.8501L28.6145 25.2001L39.759 18.8001C40.01 18.6501 40.0602 18.4001 39.9096 18.1501C39.759 17.9001 39.508 17.8501 39.257 18.0001L28.0623 24.4001L37.249 15.2501C37.3494 15.1501 37.3996 15.0501 37.3996 14.9001C37.3996 14.7501 37.3494 14.6501 37.249 14.5501C37.1486 14.4501 37.0482 14.4001 36.8976 14.4001C36.747 14.4001 36.6466 14.4501 36.5462 14.5501L27.4598 23.6501L33.986 12.4001C34.1366 12.1501 34.0362 11.9001 33.8354 11.7501C33.7349 11.7001 33.5843 11.6501 33.4839 11.7001C33.3835 11.7501 33.2831 11.8001 33.1827 11.9001L26.5562 23.3501L30.0201 10.5501C30.0703 10.3001 29.9197 10.0501 29.6687 9.9501C29.4177 9.9001 29.1667 10.0501 29.0663 10.3001L25.7028 22.8001V9.8001C25.7028 9.5501 25.502 9.3501 25.251 9.3501C25 9.3501 24.7992 9.5501 24.7992 9.8001V22.8001L21.3855 10.2001C21.3353 10.1001 21.2851 9.9501 21.1847 9.9001C21.0843 9.8501 20.9337 9.8001 20.8333 9.8501C20.5823 9.9001 20.4317 10.2001 20.4819 10.4501L23.9458 23.3501L17.1687 11.7501C17.0181 11.5001 16.7671 11.4501 16.5161 11.6001C16.4157 11.6501 16.3153 11.7501 16.3153 11.9001C16.2651 12.0001 16.3153 12.1501 16.3655 12.2501L22.992 23.7001L13.6546 14.3501C13.5542 14.2501 13.4538 14.2001 13.3032 14.2001C13.1526 14.2001 13.0522 14.2501 12.9518 14.3501C12.8514 14.4501 12.8012 14.5501 12.8012 14.7001C12.8012 14.8501 12.8514 14.9501 12.9518 15.0501L22.3394 24.4001L10.8936 17.8001C10.7932 17.7501 10.6426 17.7001 10.5422 17.7501C10.4418 17.8001 10.3414 17.8501 10.241 17.9501C10.0904 18.2001 10.1908 18.4501 10.3916 18.6001L21.8374 25.2001L9.13655 21.8001C9.03615 21.7501 8.88555 21.8001 8.78515 21.8501C8.68475 21.9001 8.58434 22.0001 8.58434 22.1501C8.53414 22.2501 8.58434 22.4001 8.63455 22.5001C8.68475 22.6001 8.78515 22.7001 8.93575 22.7001L21.5864 26.1001H8.53414C8.28314 26.1001 8.08234 26.3001 8.08234 26.5501C8.08234 26.8001 8.28314 27.0001 8.53414 27.0001H41.4659C41.7169 27.0001 41.9177 26.8001 41.9177 26.5501C41.9177 26.3001 41.7671 26.1001 41.4659 26.1001Z" fill="#2D3185"/>
</svg>
